<svg xmlns="http://www.w3.org/2000/svg" viewBox="0 0 1200 630" width="1200" height="630">
    <defs>
        <radialGradient id="g" cx="50%" cy="50%" r="50%">
            <stop offset="0%" stop-color="#00e5ff" stop-opacity="0.3"/>
            <stop offset="100%" stop-color="#00e5ff" stop-opacity="0"/>
        </radialGradient>
        <linearGradient id="bg" x1="0%" y1="0%" x2="100%" y2="100%">
            <stop offset="0%" stop-color="#0a1220"/>
            <stop offset="50%" stop-color="#0d1828"/>
            <stop offset="100%" stop-color="#0a1220"/>
        </linearGradient>
    </defs>
    <rect width="1200" height="630" fill="url(#bg)"/>
    <circle cx="600" cy="315" r="220" fill="url(#g)"/>
    <circle cx="600" cy="315" r="220" stroke="#00e5ff" stroke-width="2" opacity="0.6" fill="none" stroke-dasharray="8 6"/>
    <g stroke="#00e5ff" stroke-width="1.5" opacity="0.4" fill="none">
        <line x1="540" y1="270" x2="660" y2="270"/>
        <line x1="540" y1="360" x2="660" y2="360"/>
        <line x1="540" y1="270" x2="540" y2="360"/>
        <line x1="660" y1="270" x2="660" y2="360"/>
        <line x1="540" y1="270" x2="660" y2="360"/>
        <line x1="660" y1="270" x2="540" y2="360"/>
    </g>
    <g fill="#00e5ff">
        <circle cx="540" cy="270" r="7"/>
        <circle cx="660" cy="270" r="7"/>
        <circle cx="540" cy="360" r="7"/>
        <circle cx="660" cy="360" r="7"/>
        <circle cx="600" cy="315" r="10"/>
    </g>
    <g stroke="#1a3040" stroke-width="1" opacity="0.5" fill="none">
        <line x1="150" y1="200" x2="350" y2="280"/>
        <line x1="150" y1="450" x2="350" y2="370"/>
        <line x1="1050" y1="200" x2="850" y2="280"/>
        <line x1="1050" y1="450" x2="850" y2="370"/>
    </g>
    <g fill="#1a3040">
        <circle cx="150" cy="200" r="5"/>
        <circle cx="150" cy="450" r="5"/>
        <circle cx="1050" cy="200" r="5"/>
        <circle cx="1050" cy="450" r="5"/>
    </g>
    <text x="600" y="595" fill="#00e5ff" opacity="0.85" font-family="Inter, sans-serif" font-size="22" font-weight="600" text-anchor="middle" letter-spacing="4">SWARM LABS USA</text>
</svg>
