<svg xmlns="http://www.w3.org/2000/svg" viewBox="0 0 1200 630" width="1200" height="630">
    <defs>
        <radialGradient id="glow" cx="50%" cy="50%" r="50%">
            <stop offset="0%" stop-color="#00e5ff" stop-opacity="0.35"/>
            <stop offset="100%" stop-color="#00e5ff" stop-opacity="0"/>
        </radialGradient>
        <linearGradient id="bg" x1="0%" y1="0%" x2="100%" y2="100%">
            <stop offset="0%" stop-color="#0a1220"/>
            <stop offset="50%" stop-color="#0d1828"/>
            <stop offset="100%" stop-color="#0a1220"/>
        </linearGradient>
    </defs>
    <rect width="1200" height="630" fill="url(#bg)"/>
    <circle cx="600" cy="315" r="260" fill="url(#glow)"/>
    <g stroke="#00e5ff" stroke-width="1.5" opacity="0.3" fill="none">
        <line x1="600" y1="315" x2="240" y2="160"/>
        <line x1="600" y1="315" x2="240" y2="470"/>
        <line x1="600" y1="315" x2="960" y2="160"/>
        <line x1="600" y1="315" x2="960" y2="470"/>
        <line x1="600" y1="315" x2="600" y2="110"/>
        <line x1="600" y1="315" x2="600" y2="520"/>
        <line x1="600" y1="315" x2="340" y2="315"/>
        <line x1="600" y1="315" x2="860" y2="315"/>
        <line x1="240" y1="160" x2="340" y2="315"/>
        <line x1="240" y1="470" x2="340" y2="315"/>
        <line x1="960" y1="160" x2="860" y2="315"/>
        <line x1="960" y1="470" x2="860" y2="315"/>
        <line x1="600" y1="110" x2="340" y2="315"/>
        <line x1="600" y1="110" x2="860" y2="315"/>
        <line x1="600" y1="520" x2="340" y2="315"/>
        <line x1="600" y1="520" x2="860" y2="315"/>
    </g>
    <circle cx="600" cy="315" r="12" fill="#00e5ff"/>
    <g fill="#00e5ff">
        <circle cx="240" cy="160" r="6" opacity="0.9"/>
        <circle cx="240" cy="470" r="6" opacity="0.9"/>
        <circle cx="960" cy="160" r="6" opacity="0.9"/>
        <circle cx="960" cy="470" r="6" opacity="0.9"/>
        <circle cx="600" cy="110" r="6" opacity="0.9"/>
        <circle cx="600" cy="520" r="6" opacity="0.9"/>
        <circle cx="340" cy="315" r="8" opacity="0.95"/>
        <circle cx="860" cy="315" r="8" opacity="0.95"/>
    </g>
    <text x="600" y="595" fill="#00e5ff" opacity="0.85" font-family="Inter, sans-serif" font-size="22" font-weight="600" text-anchor="middle" letter-spacing="4">SWARM LABS USA</text>
</svg>
