<svg xmlns="http://www.w3.org/2000/svg" viewBox="0 0 1200 630" width="1200" height="630">
    <defs>
        <radialGradient id="g" cx="50%" cy="50%" r="50%">
            <stop offset="0%" stop-color="#00e5ff" stop-opacity="0.35"/>
            <stop offset="100%" stop-color="#00e5ff" stop-opacity="0"/>
        </radialGradient>
        <linearGradient id="bg" x1="0%" y1="0%" x2="100%" y2="100%">
            <stop offset="0%" stop-color="#0a1220"/>
            <stop offset="50%" stop-color="#0d1828"/>
            <stop offset="100%" stop-color="#0a1220"/>
        </linearGradient>
    </defs>
    <rect width="1200" height="630" fill="url(#bg)"/>
    <circle cx="600" cy="315" r="260" fill="url(#g)"/>
    <g stroke="#00e5ff" stroke-width="1.5" opacity="0.3" fill="none">
        <circle cx="600" cy="315" r="200" stroke-dasharray="4 6"/>
        <line x1="600" y1="115" x2="600" y2="515"/>
        <line x1="400" y1="315" x2="800" y2="315"/>
        <line x1="460" y1="175" x2="740" y2="455"/>
        <line x1="740" y1="175" x2="460" y2="455"/>
    </g>
    <g fill="#00e5ff">
        <circle cx="600" cy="315" r="14"/>
        <circle cx="600" cy="115" r="7"/>
        <circle cx="600" cy="515" r="7"/>
        <circle cx="400" cy="315" r="7"/>
        <circle cx="800" cy="315" r="7"/>
        <circle cx="460" cy="175" r="7"/>
        <circle cx="740" cy="175" r="7"/>
        <circle cx="460" cy="455" r="7"/>
        <circle cx="740" cy="455" r="7"/>
    </g>
    <text x="600" y="595" fill="#00e5ff" opacity="0.85" font-family="Inter, sans-serif" font-size="22" font-weight="600" text-anchor="middle" letter-spacing="4">SWARM LABS USA</text>
</svg>
