<svg xmlns="http://www.w3.org/2000/svg" viewBox="0 0 1200 630" width="1200" height="630">
    <defs>
        <linearGradient id="bg" x1="0%" y1="0%" x2="100%" y2="100%">
            <stop offset="0%" stop-color="#0a1220"/>
            <stop offset="50%" stop-color="#0d1828"/>
            <stop offset="100%" stop-color="#0a1220"/>
        </linearGradient>
    </defs>
    <rect width="1200" height="630" fill="url(#bg)"/>
    <g stroke="#00e5ff" stroke-width="1.5" opacity="0.35" fill="none">
        <rect x="400" y="430" width="400" height="40" rx="6"/>
        <rect x="430" y="380" width="340" height="32" rx="6"/>
        <rect x="460" y="335" width="280" height="28" rx="6"/>
        <rect x="490" y="295" width="220" height="24" rx="6"/>
    </g>
    <g fill="#00e5ff">
        <circle cx="600" cy="200" r="14"/>
        <circle cx="420" cy="140" r="6"/>
        <circle cx="500" cy="110" r="6"/>
        <circle cx="600" cy="100" r="6"/>
        <circle cx="700" cy="110" r="6"/>
        <circle cx="780" cy="140" r="6"/>
    </g>
    <g stroke="#00e5ff" stroke-width="1" opacity="0.4" fill="none">
        <line x1="600" y1="200" x2="420" y2="140"/>
        <line x1="600" y1="200" x2="500" y2="110"/>
        <line x1="600" y1="200" x2="600" y2="100"/>
        <line x1="600" y1="200" x2="700" y2="110"/>
        <line x1="600" y1="200" x2="780" y2="140"/>
        <line x1="600" y1="220" x2="600" y2="290"/>
    </g>
    <text x="600" y="495" fill="#00e5ff" opacity="0.8" font-family="'JetBrains Mono', monospace" font-size="16" text-anchor="middle">adapter layers on frozen base</text>
    <text x="600" y="595" fill="#00e5ff" opacity="0.85" font-family="Inter, sans-serif" font-size="22" font-weight="600" text-anchor="middle" letter-spacing="4">SWARM LABS USA</text>
</svg>
